<?xml version="1.0" encoding="iso-8859-1"?>
<!-- Generator: Adobe Illustrator 19.1.0, SVG Export Plug-In . SVG Version: 6.00 Build 0)  -->
<svg version="1.1" id="Capa_1" xmlns="http://www.w3.org/2000/svg" xmlns:xlink="http://www.w3.org/1999/xlink" x="0px" y="0px"
	 viewBox="0 0 481.76 481.76" style="enable-background:new 0 0 481.76 481.76;" xml:space="preserve">
<g id="XMLID_44_">
	<g>
		<g id="XMLID_46_">
			<g>
				<path style="fill:#EFEF78;" d="M213.185,59.09c0,4.06,0.88,7.91,2.46,11.37c4.32,9.52,13.91,16.14,25.05,16.14
					c11.16,0,20.77-6.65,25.08-16.2c1.56-3.45,2.43-7.28,2.43-11.31c0-15.19-12.32-27.51-27.51-27.51
					C225.505,31.58,213.185,43.9,213.185,59.09z M304.365,346.33c29-20.12,47.99-53.66,47.99-91.63v-73.02
					c-15.12,7.05-31.99,10.98-49.78,10.98c-40.79,0-76.77-20.68-97.98-52.14c-17.56,22.82-44.59,37.97-75.19,39.62v74.56
					c0,30.79,12.48,58.64,32.66,78.82c4.71,4.71,9.84,9,15.33,12.81h-21.53c-28.43,0-51.48-23.05-51.48-51.48V146.5
					c0-37.69,15.28-71.82,39.98-96.52S203.175,10,240.865,10c75.62-0.01,136.51,62.31,136.51,137.93v146.92
					c0,28.43-23.05,51.48-51.48,51.48H304.365z"/>
				<path style="fill:#FFEEFB;" d="M302.575,192.66c17.79,0,34.66-3.93,49.78-10.98v73.02c0,37.97-18.99,71.51-47.99,91.63
					c-18.01,12.51-39.89,19.84-63.48,19.84c-23.6,0-45.48-7.33-63.49-19.84c-5.49-3.81-10.62-8.1-15.33-12.81
					c-20.18-20.18-32.66-48.03-32.66-78.82v-74.56c30.6-1.65,57.63-16.8,75.19-39.62C225.805,171.98,261.785,192.66,302.575,192.66z
					"/>
				<path style="fill:#F297D6;" d="M240.695,31.58c15.19,0,27.51,12.32,27.51,27.51c0,4.03-0.87,7.86-2.43,11.31
					c-4.31,9.55-13.92,16.2-25.08,16.2c-11.14,0-20.73-6.62-25.05-16.14c-1.58-3.46-2.46-7.31-2.46-11.37
					C213.185,43.9,225.505,31.58,240.695,31.58z"/>
			</g>
			<g>
				<path style="fill:none;stroke:#000000;stroke-width:20;stroke-linejoin:round;stroke-miterlimit:10;" d="M177.395,346.33
					c-5.49-3.81-10.62-8.1-15.33-12.81c-20.18-20.18-32.66-48.03-32.66-78.82v-74.56c30.6-1.65,57.63-16.8,75.19-39.62
					c21.21,31.46,57.19,52.14,97.98,52.14c17.79,0,34.66-3.93,49.78-10.98v73.02c0,37.97-18.99,71.51-47.99,91.63
					c-18.01,12.51-39.89,19.84-63.48,19.84C217.285,366.17,195.405,358.84,177.395,346.33z"/>
				
					<line style="fill:none;stroke:#000000;stroke-width:20;stroke-linecap:round;stroke-linejoin:round;stroke-miterlimit:10;" x1="189.885" y1="245.59" x2="189.885" y2="228.84"/>
				
					<line style="fill:none;stroke:#000000;stroke-width:20;stroke-linecap:round;stroke-linejoin:round;stroke-miterlimit:10;" x1="291.875" y1="245.59" x2="291.875" y2="228.84"/>
				<path style="fill:none;stroke:#000000;stroke-width:20;stroke-linecap:round;stroke-linejoin:round;stroke-miterlimit:10;" d="
					M266.335,300.37c-14.06,14.06-36.85,14.06-50.91,0"/>
				<path style="fill:none;stroke:#000000;stroke-width:20;stroke-linecap:round;stroke-linejoin:round;stroke-miterlimit:10;" d="
					M304.365,346.33h21.53c28.43,0,51.48-23.05,51.48-51.48V147.93c0-75.62-60.89-137.94-136.51-137.93
					c-37.69,0-71.8,15.28-96.5,39.98s-39.98,58.83-39.98,96.52v148.35c0,28.43,23.05,51.48,51.48,51.48h21.53"/>
				<path style="fill:none;stroke:#000000;stroke-width:20;stroke-linecap:round;stroke-linejoin:round;stroke-miterlimit:10;" d="
					M292.875,382.74v20.35c0,28.72-23.28,52-52,52s-52-23.28-52-52v-20.34"/>
				
					<line style="fill:none;stroke:#000000;stroke-width:20;stroke-linecap:round;stroke-linejoin:round;stroke-miterlimit:10;" x1="240.875" y1="455.09" x2="240.875" y2="471.76"/>
				<path style="fill:none;stroke:#000000;stroke-width:20;stroke-linecap:round;stroke-linejoin:round;stroke-miterlimit:10;" d="
					M336.295,107.64c-20-20-44.69-32.41-70.52-37.24"/>
				<path style="fill:none;stroke:#000000;stroke-width:20;stroke-linecap:round;stroke-linejoin:round;stroke-miterlimit:10;" d="
					M215.645,70.46c-25.7,4.87-50.27,17.27-70.18,37.18"/>
				<path style="fill:none;stroke:#000000;stroke-width:20;stroke-linecap:round;stroke-linejoin:round;stroke-miterlimit:10;" d="
					M265.775,70.4c1.56-3.45,2.43-7.28,2.43-11.31c0-15.19-12.32-27.51-27.51-27.51c-15.19,0-27.51,12.32-27.51,27.51
					c0,4.06,0.88,7.91,2.46,11.37c4.32,9.52,13.91,16.14,25.05,16.14C251.855,86.6,261.465,79.95,265.775,70.4z"/>
			</g>
		</g>
	</g>
</g>
<g>
</g>
<g>
</g>
<g>
</g>
<g>
</g>
<g>
</g>
<g>
</g>
<g>
</g>
<g>
</g>
<g>
</g>
<g>
</g>
<g>
</g>
<g>
</g>
<g>
</g>
<g>
</g>
<g>
</g>
</svg>
