<?xml version="1.0" encoding="utf-8"?>
<!-- Generator: Adobe Illustrator 22.0.1, SVG Export Plug-In . SVG Version: 6.00 Build 0)  -->
<svg version="1.1" id="Capa_1" xmlns="http://www.w3.org/2000/svg" xmlns:xlink="http://www.w3.org/1999/xlink" x="0px" y="0px"
	 width="86.6px" height="1069.1px" viewBox="0 0 86.6 1069.1" style="enable-background:new 0 0 86.6 1069.1;" xml:space="preserve"
	>
<style type="text/css">
	.st0{fill:#222222;}
	.st1{fill:none;stroke:#000000;stroke-width:1.5;stroke-miterlimit:10;}
	.st2{fill:#FFFFFF;}
	.st3{fill:none;stroke:#222222;stroke-width:1.5;stroke-linecap:round;stroke-linejoin:round;stroke-miterlimit:10;}
	.st4{fill:#F5F5F5;stroke:#222222;stroke-width:1.5;stroke-miterlimit:10;}
	.st5{fill:none;stroke:#222222;stroke-width:1.5;stroke-miterlimit:10;}
	.st6{fill:#222222;stroke:#222222;stroke-width:0.5;stroke-miterlimit:10;}
	.st7{fill:none;stroke:#231F20;stroke-width:1.5;stroke-linecap:round;stroke-linejoin:round;stroke-miterlimit:10;}
	.st8{fill:none;stroke:#231F20;stroke-width:1.5;stroke-linecap:round;stroke-miterlimit:10;}
	.st9{fill:none;stroke:#272425;stroke-width:1.5;stroke-linecap:round;stroke-linejoin:round;stroke-miterlimit:10;}
	.st10{fill:none;stroke:#000000;stroke-width:1.5;stroke-linecap:round;stroke-linejoin:round;stroke-miterlimit:10;}
</style>
<g>
	<g>
		<g>
			<path class="st0" d="M47.3,175.4h-43c-1.7,0-3,1.3-3,3v40c0,1.7,1.3,3,3,3h43c1.7,0,3-1.3,3-3v-40
				C50.3,176.7,49,175.4,47.3,175.4z M48.3,218.4c0,0.6-0.4,1-1,1h-43c-0.6,0-1-0.4-1-1v-31h45V218.4z M48.3,185.4h-45v-7
				c0-0.6,0.4-1,1-1h43c0.6,0,1,0.4,1,1V185.4z M24.5,211.4h-9.3c0-0.5,0.1-1.1,0.4-1.5c0.3-0.5,0.6-0.9,1.1-1.4s1-0.9,1.5-1.3
				c0.6-0.4,1.2-0.9,1.8-1.4s1.2-1,1.8-1.5c0.6-0.5,1.1-1.1,1.5-1.6c0.5-0.6,0.8-1.2,1.1-1.9c0.3-0.7,0.4-1.4,0.4-2.3
				c0-1-0.1-1.8-0.4-2.5s-0.7-1.3-1.2-1.8s-1.1-0.8-1.9-1.1c-0.7-0.2-1.5-0.4-2.3-0.4c-1.1,0-2,0.2-2.9,0.5
				c-0.8,0.3-1.6,0.8-2.2,1.3l1.2,1.5c0.3-0.2,0.5-0.4,0.8-0.6s0.6-0.3,0.9-0.4c0.3-0.1,0.6-0.2,1-0.3s0.6-0.1,0.9-0.1
				c1.4,0,2.3,0.3,3,1c0.6,0.7,0.9,1.7,0.9,3.1c0,0.7-0.1,1.4-0.4,1.9c-0.3,0.6-0.6,1.1-1.1,1.7c-0.5,0.5-1,1-1.6,1.5
				s-1.2,0.9-1.8,1.4c-0.6,0.5-1.2,0.9-1.8,1.4s-1.1,1-1.6,1.6s-0.8,1.2-1.1,1.8s-0.4,1.3-0.4,2.1v1.2h11.7
				C24.5,213.3,24.5,211.4,24.5,211.4z M33.1,211.5h-3.6v1.8h9.2v-1.8h-3.4v-18.3h-1.8l-4.1,2.1v2.1l3.8-2L33.1,211.5
				C33.2,211.5,33.1,211.5,33.1,211.5z"/>
		</g>
	</g>
</g>
<path class="st0" d="M43.3,230.6h-8v-3c0-0.6-0.4-1-1-1s-1,0.4-1,1v3h-9v-3c0-0.6-0.4-1-1-1s-1,0.4-1,1v3h-9v-3c0-0.6-0.4-1-1-1
	s-1,0.4-1,1v3h-7c-1.7,0-3,1.3-3,3v34c0,1.7,1.3,3,3,3h39c1.7,0,3-1.3,3-3v-34C46.3,232,45,230.6,43.3,230.6z M44.3,267.6
	c0,0.6-0.4,1-1,1h-39c-0.6,0-1-0.4-1-1v-34c0-0.6,0.4-1,1-1h7v2c0,0.6,0.4,1,1,1s1-0.4,1-1v-2h9v2c0,0.6,0.4,1,1,1s1-0.4,1-1v-2h9v2
	c0,0.6,0.4,1,1,1s1-0.4,1-1v-2h8c0.6,0,1,0.4,1,1V267.6z"/>
<path class="st0" d="M12.1,244.9L12.1,244.9c1.4,0,2.6-1.2,2.6-2.6l0,0c0-1.4-1.2-2.6-2.6-2.6l0,0c-1.4,0-2.6,1.2-2.6,2.6l0,0
	C9.5,243.7,10.7,244.9,12.1,244.9z"/>
<path class="st0" d="M19.9,244.9L19.9,244.9c1.4,0,2.6-1.2,2.6-2.6l0,0c0-1.4-1.2-2.6-2.6-2.6l0,0c-1.4,0-2.6,1.2-2.6,2.6l0,0
	C17.3,243.7,18.5,244.9,19.9,244.9z"/>
<path class="st0" d="M27.7,244.9L27.7,244.9c1.4,0,2.6-1.2,2.6-2.6l0,0c0-1.4-1.2-2.6-2.6-2.6l0,0c-1.4,0-2.6,1.2-2.6,2.6l0,0
	C25.1,243.7,26.3,244.9,27.7,244.9z"/>
<path class="st0" d="M12.1,253.5L12.1,253.5c1.4,0,2.6-1.2,2.6-2.6l0,0c0-1.4-1.2-2.6-2.6-2.6l0,0c-1.4,0-2.6,1.2-2.6,2.6l0,0
	C9.5,252.4,10.7,253.5,12.1,253.5z"/>
<path class="st0" d="M19.9,253.5L19.9,253.5c1.4,0,2.6-1.2,2.6-2.6l0,0c0-1.4-1.2-2.6-2.6-2.6l0,0c-1.4,0-2.6,1.2-2.6,2.6l0,0
	C17.3,252.4,18.5,253.5,19.9,253.5z"/>
<path class="st0" d="M35.5,244.9L35.5,244.9c1.4,0,2.6-1.2,2.6-2.6l0,0c0-1.4-1.2-2.6-2.6-2.6l0,0c-1.4,0-2.6,1.2-2.6,2.6l0,0
	C32.9,243.7,34,244.9,35.5,244.9z"/>
<g>
	<g>
		<g>
			<path class="st0" d="M31.7,283.9c-10.3,0-18.7,8.3-18.7,18.5s8.4,18.5,18.7,18.5s18.7-8.3,18.7-18.5
				C50.3,292.2,42,283.9,31.7,283.9z M31.7,318.9c-9.2,0-16.7-7.4-16.7-16.5s7.5-16.5,16.7-16.5s16.7,7.4,16.7,16.5
				C48.3,311.5,40.9,318.9,31.7,318.9z M31.7,288.8c-7.5,0-13.7,6.1-13.7,13.6S24.1,316,31.7,316c7.5,0,13.7-6.1,13.7-13.6
				S39.2,288.8,31.7,288.8z M31.7,314c-6.4,0-11.7-5.2-11.7-11.6s5.2-11.6,11.7-11.6c6.4,0,11.7,5.2,11.7,11.6S38.1,314,31.7,314z
				 M10,294.7c0,0.7-0.4,1.3-1,1.7v-8.7H7v8.7c-0.6-0.3-1-1-1-1.7v-7H4v7c0,1.8,1.3,3.4,3,3.8v19.9h2v-19.9c1.7-0.4,3-1.9,3-3.8v-7
				h-2V294.7z M56,287.7L56,287.7h-2l-0.1,30.4h2l0.1-28.9c2,0.3,3.2,3.5,3.2,8.5c0,5.1-1.2,8.3-3.2,8.5v1.5c4-0.2,5-5.3,5-10.1
				C61,293,60,287.9,56,287.7z"/>
		</g>
	</g>
</g>
<g>
	<g>
		<g>
			<path d="M45.3,340.1H31.6l-1.3-5.3c-0.1-1.3-1-2.3-2.3-2.3h-7.7c-1.3,0-2.2,0.9-2.3,2.3l-1.1,5.3h-4.3c0-1.4-1.1-2.5-2.5-2.5H7.6
				c-1.4,0-2.5,1.1-2.5,2.5H4.3c-1.4,0-2.5,1.1-2.5,2.5v24.3c0,1.4,1.1,2.5,2.5,2.5h41c1.4,0,2.5-1.1,2.5-2.5v-24.3
				C47.8,341.2,46.7,340.1,45.3,340.1z M19.9,335.2V335c0-0.4,0.2-0.7,0.6-0.7h7.7c0.3,0,0.6,0.3,0.6,0.7l1.2,5.2H18.8L19.9,335.2z
				 M7.7,339.3h2.5c0.5,0,0.8,0.3,0.8,0.8H6.8C6.8,339.6,7.2,339.3,7.7,339.3z M46.1,366.9c0,0.5-0.3,0.8-0.8,0.8h-41
				c-0.5,0-0.8-0.3-0.8-0.8v-18.4H15c-1.3,1.9-2.2,4.3-2.2,6.8c0,6.4,5.3,11.7,11.7,11.7s11.7-5.3,11.7-11.7c0-2.5-0.8-4.9-2.2-6.8
				h12L46.1,366.9L46.1,366.9z M24.6,345.2c5.5,0,10,4.5,10,10s-4.5,10-10,10s-10-4.5-10-10S19.1,345.2,24.6,345.2z M46.1,346.8
				H32.7c-2.1-2-4.9-3.3-8.1-3.3s-6,1.3-8.1,3.3h-13v-4.2c0-0.5,0.3-0.8,0.8-0.8h0.8h7.5h4.3H31h14.4c0.5,0,0.8,0.3,0.8,0.8
				L46.1,346.8L46.1,346.8z M22.2,337.6l0.3-0.8h3.8l0.3,0.8H22.2z"/>
		</g>
	</g>
</g>
<g>
	<g>
		<g>
			<path d="M29.2,468.4l2.2,7h1.8l2.1-6.9l0,0l0.1-0.3l0,0v-29.1c0-0.5-0.4-0.9-0.9-0.9h-4.4c-0.5,0-0.9,0.4-0.9,0.9L29.2,468.4
				l0.3-0.1L29.2,468.4z M30.9,440h2.7v0.9h-2.7C30.9,440.9,30.9,440,30.9,440z M30.9,442.7h2.7v25.4l-1.3,4.2l-1.3-4.2v-25.4H30.9z
				 M38.9,445.3v1.8c1.5,0,2.7,1.1,2.7,2.7v33.6c0,1.5-1.1,2.7-2.7,2.7H6.7c-1.5,0-2.7-1.1-2.7-2.7v-33.6c0-1.5,1.1-2.7,2.7-2.7
				h18.9v-1.8H6.7c-2.5,0-4.4,1.9-4.4,4.4v33.6c0,2.5,1.9,4.4,4.4,4.4h32.2c2.5,0,4.4-1.9,4.4-4.4v-33.6
				C43.3,447.3,41.4,445.3,38.9,445.3z M8.6,456.8h7.2c0.7,0,1.1-0.4,1.1-0.9s-0.5-0.9-1.1-0.9H8.6c-0.7,0-1.1,0.4-1.1,0.9
				C7.5,456.5,7.9,456.8,8.6,456.8z M8.6,463.9h15c0.7,0,1.1-0.4,1.1-0.9s-0.5-0.9-1.1-0.9h-15c-0.7,0-1.1,0.4-1.1,0.9
				S7.9,463.9,8.6,463.9z M24.5,469.2H8.6c-0.7,0-1.1,0.4-1.1,0.9S8,471,8.6,471h15.9c0.7,0,1.1-0.4,1.1-0.9S25.1,469.2,24.5,469.2z
				 M24.5,476.3H8.6c-0.7,0-1.1,0.4-1.1,0.9s0.5,0.9,1.1,0.9h15.9c0.7,0,1.1-0.4,1.1-0.9S25.1,476.3,24.5,476.3z"/>
		</g>
	</g>
</g>
<path class="st1" d="M27.7,500.3l6.4,12.8c0.1,0.3,0.3,0.4,0.6,0.4l14.1,2.1c0.6,0.1,0.9,0.9,0.4,1.3L39,526.8
	c-0.1,0.1-0.3,0.4-0.3,0.7l2.3,14.1c0.1,0.6-0.6,1.1-1.1,0.9l-12.6-6.5c-0.3-0.1-0.4-0.1-0.7,0l-12.8,6.5c-0.6,0.3-1.3-0.1-1.1-0.9
	l2.4-14.1c0-0.3,0-0.6-0.3-0.7l-10.1-9.9c-0.4-0.4-0.1-1.3,0.4-1.3l14.1-2.1c0.3,0,0.4-0.1,0.6-0.4l6.4-12.8
	C26.6,499.7,27.4,499.7,27.7,500.3z"/>
<g>
	<path class="st2" d="M43.4,591.1c0.9-6.3,5.4-11.1,10.7-11.1s9.6,4.7,10.6,10.8"/>
	<g>
		<path d="M64.7,591.8c-0.5,0-0.9-0.3-1-0.8c-0.9-5.8-5-10-9.7-10c-4.1,0-7.9,3.3-9.3,8.3c-0.2,0.5-0.7,0.8-1.2,0.7
			c-0.5-0.2-0.8-0.7-0.7-1.2C44.5,583,49,579,54,579c5.6,0,10.5,4.9,11.6,11.7C65.7,591.2,65.3,591.8,64.7,591.8
			C64.8,591.8,64.8,591.8,64.7,591.8z"/>
	</g>
	<path class="st2" d="M59.4,591.1c0.9-6.3,5.4-11.1,10.7-11.1c5.3,0,9.6,4.7,10.6,10.8"/>
	<g>
		<path d="M81.3,608.5L81.3,608.5l-39-0.3c-1.4,0-2.6-0.5-3.6-1.5s-1.5-2.3-1.5-3.6l0.3-42.8c0-1.4,0.5-2.6,1.5-3.6s2.2-1.5,3.6-1.5
			l0,0l39,0.3c1.4,0,2.6,0.5,3.6,1.5s1.5,2.3,1.5,3.6l-0.3,42.8c0,1.4-0.6,2.6-1.5,3.6C83.9,607.9,82.6,608.5,81.3,608.5z
			 M42.6,557.2c-0.8,0-1.6,0.3-2.2,0.9c-0.6,0.6-0.9,1.4-0.9,2.2l-0.3,42.8c0,0.8,0.3,1.6,0.9,2.2c0.6,0.6,1.4,0.9,2.2,0.9l39,0.3
			l0,0l0,0c0.8,0,1.6-0.3,2.2-0.9c0.6-0.6,0.9-1.4,0.9-2.2l0.3-42.8c0-0.8-0.3-1.6-0.9-2.2c-0.6-0.6-1.4-0.9-2.2-0.9L42.6,557.2
			L42.6,557.2z"/>
	</g>
	<g>
		<path d="M78.4,592.2L78.4,592.2L45.3,592c-0.8,0-1.6-0.3-2.2-0.9c-0.6-0.6-0.9-1.4-0.9-2.3l0.2-25.1c0-1.7,1.4-3.2,3.2-3.2l0,0
			l33.1,0.2c0.8,0,1.6,0.3,2.2,0.9c0.6,0.6,0.9,1.4,0.9,2.3L81.6,589C81.6,590.8,80.2,592.2,78.4,592.2z M78.4,590.2L78.4,590.2
			c0.7,0,1.2-0.5,1.2-1.2l0.2-25.1c0-0.3-0.1-0.6-0.3-0.8c-0.2-0.2-0.5-0.4-0.8-0.4l-33.1-0.2l0,0c-0.6,0-1.2,0.5-1.2,1.2l-0.2,25.1
			c0,0.3,0.1,0.6,0.3,0.8s0.5,0.4,0.8,0.4L78.4,590.2z"/>
	</g>
	<g>
		<path d="M59.4,592.1L59.4,592.1c-0.6-0.1-1-0.6-0.9-1.1c1-6.9,5.9-11.9,11.7-11.9c4.8,0,9.1,3.5,10.9,8.9c0.2,0.5-0.1,1.1-0.6,1.3
			s-1.1-0.1-1.3-0.6c-1.6-4.6-5.1-7.5-9-7.5c-4.7,0-8.8,4.3-9.7,10.2C60.3,591.7,59.9,592.1,59.4,592.1z"/>
	</g>
	<g>
		<path d="M54,582L54,582c-3.4,0-6.1-2.7-6.1-6s2.7-6,6.1-6l0,0c1.6,0,3.1,0.5,4.3,1.6s1.8,2.6,1.7,4.2c-0.1,1.6-0.7,3.2-1.8,4.3
			C57.1,581.3,55.6,582,54,582z M54,572c-2.2,0-4,1.6-4.1,3.9c0,2.2,1.8,4,4,4c1.1,0,2.1-0.4,2.9-1.2c0.8-0.8,1.2-1.8,1.2-2.9l0,0
			c0-1.1-0.4-2-1.2-2.7C56,572.4,55.1,572,54,572L54,572z"/>
	</g>
	<g>
		<path d="M70,582L70,582c-3.4,0-6.1-2.7-6.1-6s2.7-6,6.1-6l0,0c1.6,0,3.1,0.5,4.3,1.6c1.2,1.1,1.8,2.6,1.7,4.2
			c-0.1,1.6-0.7,3.2-1.8,4.3C73.1,581.3,71.6,582,70,582z M70,572c-2.2,0-4,1.6-4.1,3.9c0,2.2,1.8,4,4,4c1.1,0,2.1-0.4,2.9-1.2
			s1.2-1.8,1.2-2.9l0,0c0-1.1-0.4-2-1.2-2.7C72,572.4,71.1,572,70,572L70,572z"/>
	</g>
	<path class="st2" d="M53.7,620H3.1c-1.7,0-3.1-1.3-3.1-2.9v-27.6c0-1.6,1.4-2.9,3.1-2.9h50.7c1.7,0,3.1,1.3,3.1,2.9v27.6
		C56.8,618.7,55.4,620,53.7,620z"/>
	<g>
		<g>
			<path d="M51.7,589.6H36.1l-1.4-6c-0.1-1.5-1.1-2.6-2.5-2.6h-8.7c-1.5,0-2.5,1-2.5,2.6l-1.4,6h-4.9c0-1.6-1.3-2.9-2.9-2.9H8.9
				c-1.6,0-2.9,1.3-2.9,2.9H5c-1.6,0-2.9,1.3-2.9,2.9V620c0,1.6,1.3,2.9,2.9,2.9h46.6c1.6,0,2.9-1.3,2.9-2.9v-27.6
				C54.6,590.8,53.3,589.6,51.7,589.6z M22.8,583.9v-0.2c0-0.5,0.2-0.8,0.6-0.8h8.7c0.4,0,0.6,0.3,0.6,0.8l1.4,5.9H21.5L22.8,583.9z
				 M8.9,588.6h2.9c0.5,0,1,0.4,1,1H8C8,589,8.4,588.6,8.9,588.6z M52.7,620c0,0.5-0.4,0.9-1,0.9H5.1c-0.5,0-1-0.4-1-0.9v-20.9h13.1
				c-1.5,2.2-2.4,4.8-2.4,7.7c0,7.3,6,13.3,13.3,13.3s13.3-6,13.3-13.3c0-2.9-0.9-5.5-2.4-7.7h13.6V620H52.7z M28.2,595.3
				c6.3,0,11.4,5.1,11.4,11.4s-5.1,11.4-11.4,11.4s-11.4-5.1-11.4-11.4C16.8,600.4,21.9,595.3,28.2,595.3z M52.7,597.2H37.4
				c-2.4-2.3-5.6-3.7-9.2-3.7s-6.8,1.4-9.2,3.7H4.2v-4.8c0-0.5,0.4-1,1-1h1h8.6h4.8h15.9h16.3c0.5,0,1,0.4,1,1L52.7,597.2
				L52.7,597.2z M31.5,583.9h-7.1l-1.6,4.8H33L31.5,583.9z M25.4,586.7l0.3-1H30l0.3,1H25.4z M28.2,616.6c5.4,0,9.8-4.4,9.8-9.8
				s-4.4-9.8-9.8-9.8s-9.8,4.4-9.8,9.8C18.3,612.1,22.8,616.6,28.2,616.6z M28.2,598.8c4.4,0,7.9,3.6,7.9,7.9c0,4.4-3.6,7.9-7.9,7.9
				c-4.4,0-7.9-3.6-7.9-7.9C20.2,602.4,23.8,598.8,28.2,598.8z M49.8,593.4H46c-0.5,0-1,0.4-1,1c0,0.5,0.4,1,1,1h3.8
				c0.5,0,1-0.4,1-1C50.7,593.8,50.3,593.4,49.8,593.4z M8,593.4H7c-0.5,0-1,0.4-1,1c0,0.5,0.4,1,1,1h1c0.5,0,1-0.4,1-1
				C8.9,593.8,8.5,593.4,8,593.4z M11.8,593.4h-1c-0.5,0-1,0.4-1,1c0,0.5,0.4,1,1,1h1c0.5,0,1-0.4,1-1
				C12.7,593.8,12.3,593.4,11.8,593.4z"/>
		</g>
	</g>
</g>
<g>
	<g>
		<g>
			<path d="M45.7,632.3c-0.2-0.2-0.5-0.2-0.7-0.2l-13.8,4.1l-13.8-4.1c0,0,0,0-0.1,0s-0.2,0-0.2,0c-0.1,0-0.1,0-0.2,0c0,0,0,0-0.1,0
				l-14.1,4.1c-0.3,0.1-0.6,0.4-0.6,0.8v38c0,0.2,0.1,0.5,0.3,0.7c0.2,0.1,0.3,0.2,0.5,0.2c0.1,0,0.2,0,0.2,0l13.8-4.1l13.8,4.1
				c0.1,0,0.2,0,0.2,0c0.1,0,0.2,0,0.2,0l14.1-4.1c0.3-0.1,0.6-0.4,0.6-0.8v-38C46,632.8,46,632.5,45.7,632.3z M16.3,670.4L3.9,674
				v-36.3l12.4-3.6V670.4z M30.3,674l-12.4-3.6v-19.9c0.7,0.2,1.6,0.4,2.4,0.6l0.2-1.7c-0.7-0.1-1.5-0.2-2.2-0.5L18,650v-15.8
				l12.4,3.6L30.3,674L30.3,674z M44.4,670.4L32,674v-36.3l12.4-3.6V670.4z M11.5,645.8l1.3-1c-0.5-0.6-0.9-1.2-1.3-2l-1.4,0.8
				C10.5,644.4,11,645.2,11.5,645.8z M35.3,656.1l1.7-0.2c-0.2-1-0.3-1.8-0.6-2.6l-1.6,0.5C35,654.4,35.1,655.2,35.3,656.1z
				 M10.4,640.7c-0.3-0.7-0.6-1.5-0.8-2.2L8,639c0.2,0.8,0.6,1.7,0.9,2.4L10.4,640.7z M36,661l1.7-0.3c-0.2-0.7-0.2-1.6-0.4-2.4
				l-1.7,0.2C35.7,659.3,35.9,660.2,36,661z M25.5,650.8l-0.3-1.7c-0.8,0.2-1.6,0.2-2.3,0.2L23,651C23.8,651,24.6,651,25.5,650.8z
				 M16.3,647.9c-0.7-0.4-1.2-0.8-1.8-1.4l-1.1,1.2c0.7,0.6,1.4,1.2,2.2,1.6L16.3,647.9z M33.9,651.9l1.3-1
				c-0.6-0.8-1.3-1.4-2.2-1.7l-0.7,1.5C33,650.9,33.5,651.3,33.9,651.9z M30.2,650.2l0.1-1.7c-0.8,0-1.7,0-2.6,0.2l0.2,1.7
				C28.8,650.2,29.5,650.1,30.2,650.2z M35.9,662.2c-0.3,0.3-0.3,0.8,0,1.2l1.8,1.8l-1.8,1.8c-0.3,0.3-0.3,0.8,0,1.2
				c0.2,0.2,0.4,0.2,0.6,0.2s0.4-0.1,0.6-0.2l1.8-1.8l1.8,1.8c0.2,0.2,0.4,0.2,0.6,0.2s0.4-0.1,0.6-0.2c0.3-0.3,0.3-0.8,0-1.2
				l-1.8-1.8l1.8-1.8c0.3-0.3,0.3-0.8,0-1.2c-0.3-0.3-0.8-0.3-1.2,0l-1.8,1.8l-1.8-1.8C36.7,661.9,36.1,661.9,35.9,662.2z"/>
		</g>
	</g>
</g>
<g>
	<g>
		<g>
			<path d="M38.8,14.7c2.2-1.4,3.6-3.9,3.6-6.7c0-4.4-3.6-8-8-8s-8,3.6-8,8c0,2.8,1.5,5.3,3.6,6.7c-5.6,1.8-9.6,7.1-9.6,13.3h2
				c0-6.6,5.4-12,12-12s12,5.4,12,12h2C48.5,21.8,44.4,16.6,38.8,14.7z M28.5,8c0-3.3,2.7-6,6-6s6,2.7,6,6s-2.7,6-6,6
				S28.5,11.4,28.5,8z"/>
		</g>
	</g>
	<path d="M43.7,43.5l-6.4-6.4c-1.1-1.1-3.1-1.1-4.2,0l-2.8,2.8c-1.1,1.1-3.1,1.1-4.2,0L14.8,28.6c-1.2-1.2-1.2-3.1,0-4.2l2.8-2.8
		c0.6-0.6,0.9-1.3,0.9-2.1s-0.3-1.6-0.9-2.1L11.2,11C10.1,9.9,8.1,9.9,7,11l-2.8,2.8c0,0,0,0-0.1,0.1c-0.2,0.1-0.6,0.3-0.8,0.8
		c-3.6,3.8-4.3,8.5-1.9,14c1.8,4.1,5.2,8.7,10.6,14c8.2,8.2,14.6,12,20.2,12c2.9,0,5.6-1.1,7.9-3.3c0.5-0.2,0.7-0.6,0.8-0.8
		c0-0.1,0.1-0.1,0.1-0.1l2.8-2.8C44.9,46.5,44.9,44.6,43.7,43.5z M8.3,12.4c0.4-0.4,1-0.4,1.4,0l6.4,6.4c0.2,0.2,0.3,0.4,0.3,0.7
		s-0.1,0.5-0.3,0.7L14,22.3l-7.8-7.8L8.3,12.4z M13.3,41.3c-5.2-5.2-8.5-9.6-10.2-13.4C1,23,1.5,19.1,4.8,15.9l7.8,7.9
		c-1.3,1.9-1.1,4.6,0.6,6.3l11.3,11.3c0.9,0.9,2.2,1.5,3.5,1.5c1,0,1.9-0.3,2.8-0.8l7.9,7.9c-2,2-4.2,2.9-6.7,2.9
		C27.1,52.8,21,49,13.3,41.3z M42.3,46.3l-2.1,2.1l-7.8-7.8l2.1-2.1c0.4-0.4,1-0.4,1.4,0l6.4,6.4C42.7,45.3,42.7,45.9,42.3,46.3z"/>
</g>
<g>
	<line class="st3" x1="17.8" y1="413.7" x2="29.3" y2="393.4"/>
	
		<ellipse transform="matrix(0.9981 -6.117746e-02 6.117746e-02 0.9981 -24.3337 1.835)" class="st4" cx="17.8" cy="398.3" rx="2.8" ry="2.8"/>
	<circle class="st4" cx="30" cy="408.9" r="2.8"/>
	<g>
		<path class="st3" d="M45.2,403.5c0,1.8-2.6,3.3-3.1,5c-0.4,1.7,1,4.3,0.2,5.9s-3.9,1.5-5.2,2.7c-1.2,1.2-1.2,4.3-2.7,5.2
			c-1.5,0.9-4.1-0.7-5.9-0.2c-1.7,0.4-3.1,3.1-5,3.1c-1.8,0-3.3-2.6-5-3.1c-1.7-0.4-4.3,1-5.9,0.2c-1.6-0.9-1.5-3.9-2.7-5.2
			c-1.2-1.2-4.3-1.2-5.2-2.7s0.7-4.1,0.2-5.9c-0.4-1.7-3.1-3.1-3.1-5c0-1.8,2.6-3.3,3.1-5c0.4-1.7-1-4.3-0.2-5.9
			c0.9-1.6,3.9-1.5,5.2-2.7c1.2-1.2,1.2-4.3,2.7-5.2c1.5-0.9,4.1,0.7,5.9,0.2c1.7-0.4,3.1-3.1,5-3.1c1.8,0,3.3,2.6,5,3.1
			c1.7,0.4,4.3-1,5.9-0.2c1.6,0.9,1.5,3.9,2.7,5.2c1.2,1.2,4.3,1.2,5.2,2.7s-0.7,4.1-0.2,5.9C42.6,400.2,45.2,401.7,45.2,403.5z"/>
	</g>
</g>
<ellipse transform="matrix(0.9992 -4.080157e-02 4.080157e-02 0.9992 -31.5802 1.6038)" class="st5" cx="23.5" cy="774.5" rx="14.7" ry="14.7"/>
<g>
	<path class="st3" d="M45.2,774.5c0,1.8-2.6,3.3-3.1,5c-0.4,1.7,1,4.3,0.2,5.9c-0.8,1.6-3.9,1.5-5.2,2.7c-1.2,1.2-1.2,4.3-2.7,5.2
		s-4.1-0.7-5.9-0.2c-1.7,0.4-3.1,3.1-5,3.1c-1.8,0-3.3-2.6-5-3.1c-1.7-0.4-4.3,1-5.9,0.2c-1.6-0.9-1.5-3.9-2.7-5.2
		c-1.2-1.2-4.3-1.2-5.2-2.7s0.7-4.1,0.2-5.9c-0.4-1.7-3.1-3.1-3.1-5c0-1.8,2.6-3.3,3.1-5c0.4-1.7-1-4.3-0.2-5.9
		c0.9-1.6,3.9-1.5,5.2-2.7c1.2-1.2,1.2-4.3,2.7-5.2s4.1,0.7,5.9,0.2c1.7-0.4,3.1-3.1,5-3.1c1.8,0,3.3,2.6,5,3.1
		c1.7,0.4,4.3-1,5.9-0.2c1.6,0.9,1.5,3.9,2.7,5.2c1.2,1.2,4.3,1.2,5.2,2.7s-0.7,4.1-0.2,5.9C42.6,771.2,45.2,772.7,45.2,774.5z"/>
</g>
<path class="st6" d="M44.8,64.2H1.4c-0.3,0-0.4,0.2-0.4,0.4v5.3v0.4v32.1v0.4v5.3c0,0.3,0.2,0.4,0.4,0.4h43.4c0.3,0,0.4-0.2,0.4-0.4
	v-5.3v-0.4V70.3v-0.4v-5.3C45.2,64.3,45.1,64.2,44.8,64.2z M15.1,65h16.2v4.9H15.1V65z M44.4,101.9H1.8V70.6h42.6
	C44.4,70.6,44.4,101.9,44.4,101.9z M1.8,65h12.4v4.9H1.8V65z M14.2,107.6H1.8v-4.9h12.4V107.6z M31.2,107.6H15.1v-4.9h16.2v4.9H31.2
	z M44.4,107.6H32.1v-4.9h12.4L44.4,107.6L44.4,107.6z M32.1,69.8v-4.9h12.4v4.9H32.1z"/>
<g>
	<path class="st6" d="M23.1,97.1c-5.9,0-10.8-4.9-10.8-10.8s4.9-10.8,10.8-10.8s10.8,4.9,10.8,10.8S29.1,97.1,23.1,97.1z M23.1,76.3
		c-5.5,0-10,4.4-10,10c0,5.5,4.4,10,10,10s10-4.4,10-10C33.1,80.8,28.6,76.3,23.1,76.3z"/>
</g>
<path class="st5" d="M20.3,89.4v-6.2c0-0.3,0.3-0.5,0.6-0.4l6.2,3.1c0.3,0.2,0.3,0.6,0,0.8l-6.2,3.1C20.6,89.9,20.3,89.7,20.3,89.4z
	"/>
<g>
	<path class="st6" d="M50.8,150.8c0.4-1.8,0.6-3.5,0.6-5.3c0-8.3-4.2-15.8-11.3-20.2c-0.4-0.3-1-0.1-1.3,0.3s-0.1,1,0.3,1.3
		c6.5,4,10.4,11,10.4,18.6c0,1.6-0.2,3.1-0.5,4.7c-0.4-0.1-0.9-0.1-1.3-0.1c-3.5,0-6.4,2.9-6.4,6.4s2.9,6.4,6.4,6.4s6.4-2.9,6.4-6.4
		C54.1,154,52.8,151.9,50.8,150.8z M47.8,161c-2.5,0-4.6-2-4.6-4.6s2-4.6,4.6-4.6s4.6,2,4.6,4.6S50.3,161,47.8,161z"/>
	<path class="st6" d="M36.1,165.7c-2.7,1.1-5.5,1.7-8.4,1.7c-5.8,0-11.4-2.3-15.5-6.5c1.1-1.2,1.8-2.7,1.8-4.5
		c0-3.5-2.9-6.4-6.4-6.4s-6.4,2.9-6.4,6.4s2.9,6.4,6.4,6.4c1.1,0,2.2-0.3,3.1-0.8c4.4,4.6,10.6,7.2,17,7.2c3.1,0,6.2-0.6,9.1-1.8
		c0.5-0.2,0.7-0.7,0.5-1.2C37.1,165.7,36.5,165.5,36.1,165.7z M3.1,156.4c0-2.5,2-4.6,4.6-4.6s4.6,2,4.6,4.6s-2,4.6-4.6,4.6
		S3.1,158.9,3.1,156.4z"/>
	<path class="st6" d="M4.9,144.8C4.9,144.8,5,144.8,4.9,144.8c0.5,0,0.9-0.4,1-0.8c0.6-9.2,6.9-16.9,15.7-19.4
		c0.8,2.6,3.2,4.6,6.1,4.6c3.5,0,6.4-2.9,6.4-6.4s-2.9-6.4-6.4-6.4s-6.4,2.9-6.4,6.4c-9.6,2.7-16.5,11.1-17.3,21.1
		C4,144.3,4.4,144.7,4.9,144.8z M27.7,118.1c2.5,0,4.6,2,4.6,4.6s-2,4.6-4.6,4.6s-4.6-2-4.6-4.6S25.2,118.1,27.7,118.1z"/>
</g>
<g>
	<polygon class="st7" points="37.8,860.6 7,860.6 7,820 26.6,820 37.8,829.8 	"/>
	<polyline class="st7" points="26.6,820 26.6,829.8 37.8,829.8 	"/>
	<rect x="12.6" y="834" class="st8" width="19.6" height="22.4"/>
	<line class="st8" x1="12.6" y1="839.6" x2="32.2" y2="839.6"/>
	<line class="st8" x1="12.6" y1="845.2" x2="32.2" y2="845.2"/>
	<line class="st8" x1="12.6" y1="850.8" x2="32.2" y2="850.8"/>
	<line class="st8" x1="19.6" y1="834" x2="19.6" y2="856.4"/>
</g>
<polygon class="st9" points="38.8,930.8 35,926.8 30.8,930.8 26.6,926.8 22.4,930.8 18.2,926.8 14.1,930.8 10.6,926.8 6.6,930.8 
	6.6,890 38.8,890 "/>
<line class="st9" x1="12.3" y1="899.3" x2="24.7" y2="899.3"/>
<line class="st9" x1="30.2" y1="899.3" x2="32.7" y2="899.3"/>
<line class="st9" x1="12.3" y1="905.3" x2="20.5" y2="905.3"/>
<line class="st9" x1="30.2" y1="905.3" x2="32.7" y2="905.3"/>
<line class="st9" x1="12.4" y1="912.3" x2="22.6" y2="912.3"/>
<line class="st9" x1="30.4" y1="912.3" x2="32.9" y2="912.3"/>
<line class="st9" x1="12.4" y1="918.4" x2="18.7" y2="918.4"/>
<line class="st9" x1="30.4" y1="918.4" x2="32.9" y2="918.4"/>
<g>
	<polygon class="st7" points="37.6,960 6.8,960 6.8,1000.6 26.4,1000.6 37.6,990.8 	"/>
	<polyline class="st7" points="26.4,1000.6 26.4,990.8 37.6,990.8 	"/>
	<line class="st9" x1="12.6" y1="968.2" x2="25" y2="968.2"/>
	<line class="st9" x1="12.6" y1="974.2" x2="20.8" y2="974.2"/>
	<line class="st9" x1="12.7" y1="981.2" x2="22.9" y2="981.2"/>
</g>
<g>
	<path class="st10" d="M23.3,1052.6l-20.6,11c-1.2,0.8-0.7,3.2,0.8,3.2h39.7c1.5,0,2-2.3,0.8-3.2L23.3,1052.6z"/>
	<path class="st10" d="M18.6,1044.7c0-2.6,2.1-4.7,4.7-4.7s4.7,2.1,4.7,4.7c0,3.2-1.8,3.7-3.9,4.7c-0.8,0.4-0.8,2.3-0.8,3.2"/>
</g>
<g>
	<rect x="4.3" y="697.8" class="st10" width="40.7" height="40.7"/>
	<line class="st10" x1="15.6" y1="706.2" x2="39.4" y2="706.2"/>
	<line class="st10" x1="9.9" y1="711.9" x2="39.4" y2="711.9"/>
	<line class="st10" x1="9.9" y1="717.5" x2="39.4" y2="717.5"/>
	<line class="st10" x1="9.9" y1="723.1" x2="39.4" y2="723.1"/>
	<line class="st10" x1="9.9" y1="728.7" x2="33.8" y2="728.7"/>
</g>
</svg>
